<svg xmlns="http://www.w3.org/2000/svg" width="24" height="24" viewBox="0 0 24 24">
  <path fill="#E1DFE2" d="M21.1114998,0.93 L3.80792855,0.93 C2.17955879,0.93 0.924,2.18555879 0.924,3.81392855 L0.924,21.1160715 C0.924,22.7444412 2.17955879,24 3.80792855,24 L21.1100715,24 C22.7384412,24 23.994,22.7444412 23.994,21.1160715 L23.994,3.81392855 C23.9954284,2.18413039 22.7384412,0.93 21.1114998,0.93 Z M12.4768549,7.93341836 C15.0351095,7.93341836 17.1091384,9.94316946 17.1091384,12.421434 C17.1091384,14.8996985 15.0351095,16.9094496 12.4768549,16.9094496 C9.92002873,16.9094496 7.84599988,14.8982701 7.84599988,12.421434 C7.84599988,9.94174107 9.92002873,7.93341836 12.4768549,7.93341836 Z M21.1114998,20.3947322 C21.1114998,20.9003839 20.8958123,21.1160715 20.3901606,21.1160715 L4.52926779,21.1160715 C4.02504452,21.1160715 3.80792855,20.9003839 3.80792855,20.3947322 L3.80792855,10.3016965 L5.60484886,10.6930766 C5.4120156,11.3201418 5.3077428,11.9829168 5.3077428,12.671403 C5.3077428,16.5052139 8.5187737,19.6176856 12.4754265,19.6176856 C16.4349362,19.6176856 19.6445387,16.5066423 19.6445387,12.671403 C19.6445387,11.9829168 19.5402659,11.3201418 19.3474326,10.6930766 L21.1100715,10.3016965 L21.1100715,20.3947322 L21.1114998,20.3947322 Z M21.1114998,7.41776794 C21.1114998,7.81629001 20.7886827,8.13910718 20.3901606,8.13910718 L17.5062321,8.13910718 C17.10771,8.13910718 16.7848928,7.81629001 16.7848928,7.41776794 L16.7848928,4.53383939 C16.7848928,4.13531732 17.10771,3.81250015 17.5062321,3.81250015 L20.3901606,3.81250015 C20.7886827,3.81250015 21.1114998,4.13531732 21.1114998,4.53383939 L21.1114998,7.41776794 Z"/>
</svg>
